<?xml version="1.0" encoding="utf-8"?>
<svg width="500pt" height="500pt" viewBox="0 0 500 500" version="1.1" xmlns="http://www.w3.org/2000/svg">
  <g id="surface1">
    <path style="stroke: none; fill-rule: nonzero; fill-opacity: 1; fill: rgb(225, 75, 75);" d="M 296.875 390.625 C 296.863281 414.460938 278.964844 434.492188 255.28125 437.175781 C 231.597656 439.863281 209.671875 424.347656 204.320312 401.121094 C 198.972656 377.894531 211.902344 354.351562 234.375 346.40625 L 234.375 78.125 C 234.375 69.496094 241.371094 62.5 250 62.5 C 258.628906 62.5 265.625 69.496094 265.625 78.125 L 265.625 346.40625 C 284.363281 353.03125 296.886719 370.75 296.875 390.625 Z M 296.875 390.625 "/>
    <path style="stroke: none; fill-rule: nonzero; fill-opacity: 1; fill: rgb(225, 75, 75);" d="M 171.875 78.125 C 171.875 34.976562 206.851562 0 250 0 C 293.148438 0 328.125 34.976562 328.125 78.125 L 328.125 314.0625 C 370.199219 357.003906 369.730469 425.847656 327.078125 468.210938 C 284.421875 510.574219 215.578125 510.574219 172.921875 468.210938 C 130.269531 425.847656 129.800781 357.003906 171.875 314.0625 Z M 250 31.25 C 224.113281 31.25 203.125 52.238281 203.125 78.125 L 203.125 327.71875 L 197.90625 332.40625 C 173.761719 354 165.445312 388.253906 177 418.515625 C 188.558594 448.777344 217.589844 468.765625 249.984375 468.765625 C 282.378906 468.765625 311.410156 448.777344 322.96875 418.515625 C 334.523438 388.253906 326.207031 354 302.0625 332.40625 L 296.875 327.71875 L 296.875 78.125 C 296.875 52.238281 275.886719 31.25 250 31.25 Z M 250 31.25 "/>
  </g>
</svg>