<?xml version="1.0" encoding="iso-8859-1"?>
<!-- Generator: Adobe Illustrator 19.0.0, SVG Export Plug-In . SVG Version: 6.00 Build 0)  -->
<svg version="1.1" id="Layer_1" xmlns="http://www.w3.org/2000/svg" xmlns:xlink="http://www.w3.org/1999/xlink" x="0px" y="0px"
	 viewBox="0 0 512 512" style="enable-background:new 0 0 512 512;" xml:space="preserve">
<g>
	<g>
		<path d="M487.452,219.528H512v-39.744h-24.548v-52.471c0-2.88-0.853-5.66-2.776-7.805L450.491,81.27
			c-2.217-2.472-5.328-3.884-8.65-3.884s-6.46,1.412-8.676,3.884l-34.097,38.237c-1.924,2.145-2.794,4.925-2.794,7.805v52.471
			h-32.731v-52.471c0-2.88-0.863-5.66-2.787-7.805L326.567,81.27c-2.216-2.472-5.332-3.884-8.653-3.884s-6.46,1.412-8.677,3.884
			l-34.088,38.237c-1.924,2.145-2.784,4.925-2.784,7.805v52.471h-32.731v-52.471c0-2.88-0.873-5.66-2.796-7.805L202.643,81.27
			c-2.218-2.472-5.334-3.884-8.655-3.884c-3.321,0-6.462,1.412-8.678,3.884l-34.077,38.237c-1.924,2.145-2.775,4.925-2.775,7.805
			v52.471h-32.732v-52.471c0-2.88-0.884-5.66-2.807-7.805l-34.2-38.237c-2.216-2.472-5.336-3.884-8.657-3.884
			s-6.463,1.412-8.681,3.884l-34.069,38.237c-1.923,2.145-2.765,4.925-2.765,7.805v52.471H0v39.744h24.548v111.05H0v39.744h24.548
			v52.133c0,6.455,4.813,12.159,11.269,12.159h68.58c6.456,0,11.329-5.704,11.329-12.159v-52.133h32.731v52.133
			c0,6.455,4.832,12.159,11.289,12.159h68.58c6.456,0,11.308-5.704,11.308-12.159v-52.133h32.731v52.133
			c0,6.455,4.852,12.159,11.308,12.159h68.58c6.456,0,11.289-5.704,11.289-12.159v-52.133h32.731v52.133
			c0,6.455,4.873,12.159,11.329,12.159h68.58c6.456,0,11.269-5.704,11.269-12.159v-28.642v-23.491h24.548v-39.744H487.45v-111.05
			H487.452z M148.457,330.578h-32.731v-111.05h32.731V330.578z M272.365,330.578h-32.731v-111.05h32.731V330.578z M396.274,330.578
			h-32.731v-111.05h32.731V330.578z"/>
	</g>
</g>
<g>
</g>
<g>
</g>
<g>
</g>
<g>
</g>
<g>
</g>
<g>
</g>
<g>
</g>
<g>
</g>
<g>
</g>
<g>
</g>
<g>
</g>
<g>
</g>
<g>
</g>
<g>
</g>
<g>
</g>
</svg>
